<?xml version="1.0" standalone="no"?>
<!DOCTYPE svg PUBLIC "-//W3C//DTD SVG 20010904//EN"
 "http://www.w3.org/TR/2001/REC-SVG-20010904/DTD/svg10.dtd">
<svg version="1.0" xmlns="http://www.w3.org/2000/svg"
 width="1024.000000pt" height="1024.000000pt" viewBox="0 0 1024.000000 1024.000000"
 preserveAspectRatio="xMidYMid meet">

<!-- Logo PP central en rouge -->
<g transform="translate(0.000000,1024.000000) scale(0.100000,-0.100000)"
fill="#dc2626" stroke="none">
<path d="M3982 6450 c-279 -73 -458 -317 -438 -596 18 -250 186 -443 441 -509
93 -24 97 -23 93 31 l-3 46 -75 27 c-215 76 -331 253 -317 484 4 76 10 99 41
162 42 84 103 146 188 187 77 38 127 47 245 48 238 0 392 -109 449 -317 13
-50 17 -211 24 -1183 5 -619 9 -1135 9 -1147 1 -22 5 -23 73 -23 l71 0 -7
1153 c-7 1272 -4 1216 -72 1354 -47 94 -147 192 -239 234 -151 68 -337 87
-483 49z"/>
<path d="M4980 6401 l0 -49 383 -4 c367 -4 384 -5 445 -27 178 -65 278 -207
289 -411 4 -80 2 -105 -17 -159 -71 -210 -251 -327 -500 -325 -107 1 -170 17
-261 65 -108 58 -204 191 -229 317 -22 113 -12 102 -93 102 l-73 0 3 -692 c2
-381 6 -888 9 -1125 l6 -433 63 0 62 0 6 347 c4 190 7 471 7 623 0 152 3 412
7 577 l6 301 60 -49 c63 -53 157 -104 247 -135 82 -28 268 -25 374 5 290 81
456 287 456 566 0 223 -106 408 -284 495 -44 22 -105 45 -135 50 -30 6 -228
10 -442 10 l-389 0 0 -49z"/>
<path d="M7656 5245 c-53 -19 -85 -44 -121 -94 -25 -36 -30 -54 -33 -116 -4
-65 -1 -79 23 -122 60 -111 198 -151 322 -92 96 46 148 181 112 290 -40 118
-178 179 -303 134z"/>
</g>

<!-- AGRI et POINT en vert -->
<g transform="translate(0.000000,1024.000000) scale(0.100000,-0.100000)"
fill="#16a34a" stroke="none">
<path d="M2295 4693 c-320 -50 -530 -299 -485 -576 48 -299 290 -494 590 -473
152 10 259 56 355 150 86 85 135 197 135 309 l0 47 -210 0 -210 0 0 -40 0 -40
161 0 162 0 -6 -40 c-25 -185 -253 -325 -471 -290 -119 19 -186 50 -264 124
-61 57 -96 108 -118 170 -76 213 11 419 220 521 181 89 410 56 554 -79 l49
-46 32 34 c31 32 31 33 14 53 -55 62 -165 128 -261 156 -55 17 -197 28 -247
20z"/>
<path d="M6790 4674 c-96 -25 -161 -64 -237 -140 -292 -290 -168 -767 227
-869 80 -21 224 -21 303 0 225 59 378 240 394 469 11 153 -40 281 -156 396
-81 81 -144 117 -247 144 -76 20 -210 20 -284 0z m255 -88 c158 -42 274 -155
315 -306 18 -67 14 -185 -9 -252 -46 -134 -156 -239 -286 -273 -178 -46 -373
10 -474 135 -156 195 -114 495 90 636 95 66 248 91 364 60z"/>
<path d="M1210 4542 c-35 -75 -139 -298 -232 -494 -92 -196 -168 -359 -168
-363 0 -3 23 -5 52 -3 l52 3 71 155 71 155 220 3 220 2 75 -160 74 -160 53 0
c28 0 52 2 52 5 0 9 -461 979 -468 987 -4 4 -36 -54 -72 -130z m158 -260 c45
-97 82 -180 82 -184 0 -5 -76 -8 -170 -8 -93 0 -170 4 -170 8 0 5 36 84 80
176 44 91 80 171 80 176 0 31 24 -10 98 -168z"/>
<path d="M3097 4663 c-4 -3 -7 -226 -7 -495 l0 -488 50 0 50 0 0 236 0 235 31
-3 c29 -3 48 -25 192 -218 87 -118 165 -223 172 -233 10 -14 24 -17 68 -15
l56 3 -169 228 c-100 134 -165 229 -157 231 6 3 39 7 71 10 176 19 279 144
246 302 -22 107 -111 182 -240 203 -71 12 -353 15 -363 4z m418 -105 c87 -47
119 -150 72 -232 -45 -79 -91 -95 -274 -96 l-123 0 0 176 0 176 148 -4 c110
-3 155 -8 177 -20z"/>
<path d="M3910 4175 l0 -495 50 0 50 0 0 495 0 495 -50 0 -50 0 0 -495z"/>
<path d="M5590 4175 l0 -495 50 0 50 0 2 228 3 227 160 6 c132 5 170 10 218
29 76 29 119 68 147 132 39 91 15 223 -52 285 -70 64 -161 83 -410 83 l-168 0
0 -495z m411 394 c167 -36 197 -245 44 -319 -39 -19 -63 -22 -197 -23 l-153
-2 -3 165 c-1 90 0 170 2 177 7 17 232 18 307 2z"/>
<path d="M7700 4175 l0 -495 50 0 50 0 0 495 0 495 -50 0 -50 0 0 -495z"/>
<path d="M8070 4175 l0 -495 53 0 52 0 -3 362 c-1 199 0 368 3 376 6 15 33
-13 409 -428 152 -168 286 -306 296 -308 20 -3 20 5 20 492 l0 496 -55 0 -55
0 0 -387 0 -388 -43 45 c-23 25 -118 131 -212 235 -268 298 -435 479 -451 488
-12 7 -14 -62 -14 -488z"/>
<path d="M9050 4625 l0 -45 115 0 115 0 0 -450 0 -450 55 0 55 0 0 450 0 450
109 0 109 0 4 41 c2 22 2 42 -1 45 -2 2 -130 4 -283 4 l-278 0 0 -45z"/>
</g>
</svg>
